<?xml version="1.0" standalone="no"?>
<!DOCTYPE svg PUBLIC "-//W3C//DTD SVG 20010904//EN"
 "http://www.w3.org/TR/2001/REC-SVG-20010904/DTD/svg10.dtd">
<svg version="1.0" xmlns="http://www.w3.org/2000/svg"
 width="600.000000pt" height="600.000000pt" viewBox="0 0 600.000000 600.000000"
 preserveAspectRatio="xMidYMid meet">

<g transform="translate(0.000000,600.000000) scale(0.100000,-0.100000)"
fill="#000000" stroke="none">
<path d="M1650 3110 l0 -700 165 0 165 0 0 162 c0 90 -7 297 -16 461 -8 164
-14 306 -12 315 2 9 13 -12 25 -48 41 -121 291 -855 298 -872 6 -16 22 -18
121 -18 63 0 114 2 114 3 0 6 260 767 286 837 l24 65 -2 -455 -3 -455 165 0
165 0 -2 450 c-2 396 0 446 13 420 7 -16 53 -145 100 -285 47 -140 111 -328
141 -417 l55 -163 113 0 113 0 10 28 c6 15 43 119 81 232 247 727 234 690 241
690 3 0 2 -53 -1 -117 -4 -65 -10 -279 -15 -475 l-7 -358 166 0 167 0 0 700 0
700 -219 0 c-219 0 -220 0 -226 -22 -8 -26 -217 -673 -272 -841 -19 -60 -37
-106 -39 -104 -3 2 -63 188 -135 413 -72 225 -141 441 -153 479 l-23 70 -271
3 -271 2 -111 -342 c-195 -599 -204 -628 -211 -620 -5 6 -150 453 -284 880
l-26 82 -214 0 -215 0 0 -700z"/>
</g>
</svg>
